<?xml version="1.0" standalone="no"?><!DOCTYPE svg PUBLIC "-//W3C//DTD SVG 1.1//EN" "http://www.w3.org/Graphics/SVG/1.1/DTD/svg11.dtd"><svg t="1609072708933" class="icon" viewBox="0 0 1091 1024" version="1.1" xmlns="http://www.w3.org/2000/svg" p-id="8475" xmlns:xlink="http://www.w3.org/1999/xlink" width="213.0859375" height="200"><defs><style type="text/css"></style></defs><path d="M1079.645443 485.307597a88.81129 88.81129 0 0 1-84.443522 56.780989h-30.089071v361.554159a120.841592 120.841592 0 0 1-120.356284 120.356284h-210.623497v-242.653798a28.633148 28.633148 0 0 0-30.089071-30.089071H486.114252a28.633148 28.633148 0 0 0-30.089071 30.089071v242.653798H243.460454a120.841592 120.841592 0 0 1-121.3269-122.297514v-361.55416h-30.089071A97.061519 97.061519 0 0 1 8.086269 485.307597a83.472907 83.472907 0 0 1 23.780072-101.429288L486.114252 22.809457a90.267213 90.267213 0 0 1 120.356284 0l451.336065 361.068852a83.472907 83.472907 0 0 1 24.26538 99.488057z" fill="#EC3A4E" p-id="8476"></path></svg>